:SAMPLES-PER-SECOND 30
:FRAME-RANGE 1-1390
:FULLY-SPECIFIED
:DEGREES
348
root  -51.5986 36.9868 3.60095 175.385 13.5477 175.327
RightUpLeg  -12.3963 -6.41099 5.76402
RightLeg  40.1231 -16.3608 -14.5359
RightFoot  -25.5194 -0.111567 0.493884
RightToes  -2.9104e-010 0 -3.6325e-017
Spine  23.7784 -0.741682 -1.40282
Spine1  0.592171 -4.92037 3.39595
HEad  1.34362 -11.0263 -3.21013
LeftShoulder1  3.06537 -4.77016 -31.0386
LeftArm  95.239 -33.6239 -87.0994
LeftForeArm  -12.8127 -19.4936 -9.99712
LeftHand  -0.045414 2.71388 1.37197
RightShoulder  12.7471 20.6699 46.0203
RightArm  31.7831 7.77735 23.3186
RightForeArm  24.1589 26.6922 4.44192
RightHand  0.68132 5.59283 6.85867
LeftUpLeg  -91.3409 20.7357 -66.2122
LeftLeg  122.196 -5.3645 7.34475
LeftFoot  10.1602 1.51092 -8.27552
LeftToes  5.45371e-012 -1.3743e-010 1.09575e-010
349
root  -51.9208 35.942 3.55968 174.837 12.2134 176.456
RightUpLeg  -15.5504 -9.02306 6.44201
RightLeg  48.1281 -14.3021 -16.7635
RightFoot  -28.7371 -0.0381607 1.02615
RightToes  -2.9104e-010 0 -3.6325e-017
Spine  23.8179 -1.32544 -0.0977488
Spine1  2.42198 -4.93911 2.74941
HEad  -1.6404 -12.7568 -2.02677
LeftShoulder1  3.15056 -4.82596 -31.8184
LeftArm  96.4389 -33.9375 -86.9331
LeftForeArm  -12.7274 -19.7873 -9.63573
LeftHand  -0.0721792 2.43743 2.38025
RightShoulder  13.0659 21.3908 45.7826
RightArm  31.8607 8.56388 22.4824
RightForeArm  22.5543 26.4555 4.47626
RightHand  0.704254 5.30571 7.30792
LeftUpLeg  -89.7781 21.0403 -65.2587
LeftLeg  121.147 -6.46449 9.28689
LeftFoot  10.9591 1.02226 -5.52487
LeftToes  5.45371e-012 -1.3743e-010 1.09575e-010
350
root  -52.1076 35.3283 3.36035 174.402 11.0041 177.359
RightUpLeg  -16.1948 -12.673 6.44469
RightLeg  51.3569 -12.0847 -16.0484
RightFoot  -31.5605 -0.0558909 0.890781
RightToes  -2.9104e-010 0 -3.6325e-017
Spine  23.1815 -1.61532 -0.496482
Spine1  4.21713 -5.56487 4.06027
HEad  -3.31503 -13.2714 -0.715402
LeftShoulder1  3.19184 -4.92563 -31.8617
LeftArm  96.5897 -34.6535 -87.0764
LeftForeArm  -12.6922 -19.7388 -9.69262
LeftHand  -0.0814604 2.97803 3.25713
RightShoulder  13.4104 22.1952 45.4905
RightArm  30.231 9.60217 22.025
RightForeArm  22.774 26.221 4.41312
RightHand  0.767604 5.55677 7.79269
LeftUpLeg  -89.4222 22.0165 -65.585
LeftLeg  119.451 -8.52704 13.1314
LeftFoot  11.2857 0.156271 -1.12665
LeftToes  5.45371e-012 -1.3743e-010 1.09575e-010
351
root  -52.1562 35.0563 3.02432 173.925 10.1975 178.656
RightUpLeg  -15.3173 -13.4709 7.36157
RightLeg  52.5374 -12.0739 -16.7016
RightFoot  -32.731 0.0398787 1.39142
RightToes  -2.9104e-010 0 -3.6325e-017
Spine  23.2893 -1.71976 0.0436746
Spine1  3.33781 -5.79339 4.34021
HEad  -3.10464 -14.6448 0.551522
LeftShoulder1  3.1908 -4.7717 -32.5533
LeftArm  92.7774 -35.7117 -86.9698
LeftForeArm  -10.2748 -18.8361 -10.6129
LeftHand  -0.069487 3.0594 2.73452
RightShoulder  13.1885 21.578 45.8665
RightArm  29.9979 10.5049 22.0768
RightForeArm  24.782 26.6618 4.40181
RightHand  0.753264 5.53889 7.65523
LeftUpLeg  -90.3812 23.0656 -66.1366
LeftLeg  119.914 -7.03571 10.6242
LeftFoot  8.8203 0.404233 -2.57677
LeftToes  5.45371e-012 -1.3743e-010 1.09575e-010
352
root  -52.2996 35.4307 2.6685 173.86 10.105 178.658
RightUpLeg  -13.5594 -13.549 6.63298
RightLeg  50.2943 -12.4303 -15.8771
RightFoot  -31.7536 0.0817584 1.65437
RightToes  -2.9104e-010 0 -3.6325e-017
Spine  22.5005 -1.47014 -0.402689
Spine1  3.18241 -5.71679 4.7938
HEad  -2.45106 -16.5867 1.11657
LeftShoulder1  3.18872 -4.82271 -32.2925
LeftArm  91.3159 -36.0965 -86.7234
LeftForeArm  -9.41444 -18.5433 -10.8962
LeftHand  -0.0657093 3.24797 2.71755
RightShoulder  13.4512 22.003 45.9966
RightArm  30.6462 10.3745 22.3549
RightForeArm  26.8912 26.5493 4.2646
RightHand  0.660417 5.46338 6.72603
LeftUpLeg  -91.7533 23.733 -67.0996
LeftLeg  120.424 -3.42194 4.85005
LeftFoot  6.82138 0.784944 -5.16932
LeftToes  5.45371e-012 -1.3743e-010 1.09575e-010
353
root  -52.4698 36.2757 2.26304 174.084 10.3529 178.071
RightUpLeg  -10.733 -13.7494 4.98652
RightLeg  44.8748 -12.6501 -13.4451
RightFoot  -29.1788 0.0517007 1.59256
RightToes  -2.9104e-010 0 -3.6325e-017
Spine  21.9869 -1.23399 -0.582119
Spine1  2.30683 -5.48438 4.64867
HEad  -2.3123 -18.6713 1.55042
LeftShoulder1  3.15643 -4.81109 -31.9571
LeftArm  90.9125 -35.5407 -86.0729
LeftForeArm  -9.09252 -18.5023 -10.9231
LeftHand  -0.0605206 3.49308 2.67225
RightShoulder  13.5286 22.0283 46.2231
RightArm  31.6055 10.1266 23.1077
RightForeArm  26.9834 26.1764 4.17893
RightHand  0.659903 5.52706 6.67751
LeftUpLeg  -93.2974 24.0413 -67.8049
LeftLeg  121.205 -2.0582 2.62773
LeftFoot  5.41185 1.07663 -7.52858
LeftToes  5.45371e-012 -1.3743e-010 1.09575e-010
354
root  -52.7827 37.4436 1.88559 174.552 11.0009 176.407
RightUpLeg  -7.72075 -13.8551 1.93235
RightLeg  37.4981 -12.2667 -10.1866
RightFoot  -24.6894 0.0653402 1.98869
RightToes  -2.9104e-010 0 -3.6325e-017
Spine  21.7886 -0.863985 -0.956579
Spine1  0.990996 -4.95614 4.04207
HEad  -2.25041 -20.4227 1.89737
LeftShoulder1  3.11008 -4.69479 -31.9294
LeftArm  90.5958 -34.7111 -85.2802
LeftForeArm  -10.4603 -18.5463 -10.9573
LeftHand  -0.0502501 3.16273 1.79372
RightShoulder  13.2419 21.4892 46.2305
RightArm  32.3125 9.54577 23.8659
RightForeArm  25.9637 26.1859 4.23508
RightHand  0.703935 5.48145 7.17575
LeftUpLeg  -94.6462 23.6599 -68.7535
LeftLeg  121.486 -3.18296 4.2911
LeftFoot  6.94498 1.15138 -7.41044
LeftToes  5.45371e-012 -1.3743e-010 1.09575e-010
355
root  -53.1215 38.6244 1.51161 174.938 12.1928 174.574
RightUpLeg  -5.68846 -12.6057 -1.04732
RightLeg  31.6336 -11.6559 -7.88997
RightFoot  -18.4469 0.121042 3.96167
RightToes  -2.9104e-010 0 -3.6325e-017
Spine  21.7759 -0.317839 -1.05516
Spine1  -0.206514 -4.24451 3.16085
HEad  -1.90117 -21.4813 1.60608
LeftShoulder1  3.07025 -4.73019 -31.2795
LeftArm  91.9868 -34.3097 -85.2765
LeftForeArm  -12.5157 -18.9633 -10.6065
LeftHand  -0.0330146 2.9324 0.834923
RightShoulder  13.1996 21.453 46.1479
RightArm  33.8019 8.82182 24.2265
RightForeArm  23.957 26.1577 4.33595
RightHand  0.73755 5.33394 7.6451
LeftUpLeg  -95.9451 23.4459 -69.3251
LeftLeg  121.952 -4.80952 6.60369
LeftFoot  8.19604 1.16333 -7.0422
LeftToes  5.45371e-012 -1.3743e-010 1.09575e-010
356
root  -53.5384 39.642 1.21043 175.443 13.2128 173.436
RightUpLeg  -5.36546 -10.6934 -2.9474
RightLeg  28.4894 -12.153 -7.29108
RightFoot  -11.414 -0.0731024 7.06253
RightToes  -2.9104e-010 0 -3.6325e-017
Spine  22.0871 -0.231288 -0.546881
Spine1  -0.923172 -3.8743 2.47365
HEad  -2.00975 -21.7985 1.21488
LeftShoulder1  3.0208 -4.75446 -30.5643
LeftArm  92.7843 -34.113 -85.4224
LeftForeArm  -13.7985 -19.152 -10.4679
LeftHand  -0.0265325 3.00788 0.5141
RightShoulder  13.3828 21.7842 46.1695
RightArm  35.5109 8.74444 24.5095
RightForeArm  22.2931 25.5198 4.28657
RightHand  0.780426 5.39464 8.05676
LeftUpLeg  -96.6316 23.0876 -69.1809
LeftLeg  122.096 -6.22543 8.61462
LeftFoot  8.52367 1.16133 -6.92411
LeftToes  5.45371e-012 -1.3743e-010 1.09575e-010
357
root  -53.9191 40.3869 0.970243 176.531 13.9623 173.228
RightUpLeg  -7.51247 -8.53128 -2.96521
RightLeg  28.8922 -15.2946 -9.18567
RightFoot  -4.54426 -0.373754 5.76661
RightToes  -2.9104e-010 0 -3.6325e-017
Spine  22.2711 -0.289717 -0.232523
Spine1  -1.26792 -3.88978 2.84901
HEad  -2.60041 -21.9619 1.29715
LeftShoulder1  3.02203 -4.70968 -30.7809
LeftArm  94.0202 -33.92 -85.0532
LeftForeArm  -15.0341 -19.4252 -10.2247
LeftHand  -0.022862 2.83684 0.17682
RightShoulder  13.4379 21.8621 46.2172
RightArm  36.5179 9.03996 24.4807
RightForeArm  21.4194 25.0191 4.22535
RightHand  0.797514 5.56024 8.10487
LeftUpLeg  -96.9284 22.5237 -68.7003
LeftLeg  121.936 -7.11007 9.94022
LeftFoot  8.23056 1.08296 -6.566
LeftToes  5.45371e-012 -1.3743e-010 1.09575e-010
